<mxfile host="app.diagrams.net" modified="2024-05-28T15:49:15.956Z" agent="Mozilla/5.0 (Windows NT 10.0; Win64; x64) AppleWebKit/537.36 (KHTML, like Gecko) Chrome/124.0.0.0 Safari/537.36 Edg/124.0.0.0" etag="6ehftw9tO1O5O_V6dthU" version="24.4.9" type="github">
  <diagram name="第 1 页" id="QO-yRRX4etxg2OLbIyc4">
    <mxGraphModel dx="1107" dy="641" grid="1" gridSize="10" guides="1" tooltips="1" connect="1" arrows="1" fold="1" page="1" pageScale="1" pageWidth="827" pageHeight="1169" math="0" shadow="0">
      <root>
        <mxCell id="0" />
        <mxCell id="1" parent="0" />
        <mxCell id="7kE2tY7jgJx2WLP6qvL9-3" value="" style="group;rotation=90;" vertex="1" connectable="0" parent="1">
          <mxGeometry x="70" y="120" width="170" height="90" as="geometry" />
        </mxCell>
        <mxCell id="7kE2tY7jgJx2WLP6qvL9-1" value="" style="rounded=1;whiteSpace=wrap;html=1;" vertex="1" parent="7kE2tY7jgJx2WLP6qvL9-3">
          <mxGeometry width="170" height="90" as="geometry" />
        </mxCell>
        <mxCell id="7kE2tY7jgJx2WLP6qvL9-2" value="Batch Job Coordinator" style="text;html=1;align=center;verticalAlign=middle;whiteSpace=wrap;rounded=0;" vertex="1" parent="7kE2tY7jgJx2WLP6qvL9-3">
          <mxGeometry x="42.5" y="22.5" width="85" height="45" as="geometry" />
        </mxCell>
        <mxCell id="7kE2tY7jgJx2WLP6qvL9-4" value="" style="group" vertex="1" connectable="0" parent="1">
          <mxGeometry x="60" y="280" width="170" height="90" as="geometry" />
        </mxCell>
        <mxCell id="7kE2tY7jgJx2WLP6qvL9-5" value="" style="rounded=1;whiteSpace=wrap;html=1;" vertex="1" parent="7kE2tY7jgJx2WLP6qvL9-4">
          <mxGeometry width="170" height="90" as="geometry" />
        </mxCell>
        <mxCell id="7kE2tY7jgJx2WLP6qvL9-6" value="Local Database Connector" style="text;html=1;align=center;verticalAlign=middle;whiteSpace=wrap;rounded=0;" vertex="1" parent="7kE2tY7jgJx2WLP6qvL9-4">
          <mxGeometry x="42.5" y="22.5" width="85" height="45" as="geometry" />
        </mxCell>
        <mxCell id="7kE2tY7jgJx2WLP6qvL9-7" value="" style="group" vertex="1" connectable="0" parent="1">
          <mxGeometry x="350" y="120" width="170" height="90" as="geometry" />
        </mxCell>
        <mxCell id="7kE2tY7jgJx2WLP6qvL9-8" value="" style="rounded=1;whiteSpace=wrap;html=1;" vertex="1" parent="7kE2tY7jgJx2WLP6qvL9-7">
          <mxGeometry width="170" height="90" as="geometry" />
        </mxCell>
        <mxCell id="7kE2tY7jgJx2WLP6qvL9-9" value="Job Steps" style="text;html=1;align=center;verticalAlign=middle;whiteSpace=wrap;rounded=0;" vertex="1" parent="7kE2tY7jgJx2WLP6qvL9-7">
          <mxGeometry x="42.5" y="22.5" width="85" height="45" as="geometry" />
        </mxCell>
        <mxCell id="7kE2tY7jgJx2WLP6qvL9-10" value="" style="group" vertex="1" connectable="0" parent="1">
          <mxGeometry x="350" y="280" width="170" height="90" as="geometry" />
        </mxCell>
        <mxCell id="7kE2tY7jgJx2WLP6qvL9-11" value="" style="rounded=1;whiteSpace=wrap;html=1;" vertex="1" parent="7kE2tY7jgJx2WLP6qvL9-10">
          <mxGeometry width="170" height="90" as="geometry" />
        </mxCell>
        <mxCell id="7kE2tY7jgJx2WLP6qvL9-12" value="Notifications Manager" style="text;html=1;align=center;verticalAlign=middle;whiteSpace=wrap;rounded=0;" vertex="1" parent="7kE2tY7jgJx2WLP6qvL9-10">
          <mxGeometry x="42.5" y="22.5" width="85" height="45" as="geometry" />
        </mxCell>
        <mxCell id="7kE2tY7jgJx2WLP6qvL9-13" value="" style="group" vertex="1" connectable="0" parent="1">
          <mxGeometry x="60" y="450" width="170" height="90" as="geometry" />
        </mxCell>
        <mxCell id="7kE2tY7jgJx2WLP6qvL9-14" value="" style="rounded=1;whiteSpace=wrap;html=1;" vertex="1" parent="7kE2tY7jgJx2WLP6qvL9-13">
          <mxGeometry width="170" height="90" as="geometry" />
        </mxCell>
        <mxCell id="7kE2tY7jgJx2WLP6qvL9-15" value="Data Source Connector" style="text;html=1;align=center;verticalAlign=middle;whiteSpace=wrap;rounded=0;" vertex="1" parent="7kE2tY7jgJx2WLP6qvL9-13">
          <mxGeometry x="42.5" y="22.5" width="85" height="45" as="geometry" />
        </mxCell>
        <mxCell id="7kE2tY7jgJx2WLP6qvL9-16" value="" style="group" vertex="1" connectable="0" parent="1">
          <mxGeometry x="350" y="450" width="170" height="90" as="geometry" />
        </mxCell>
        <mxCell id="7kE2tY7jgJx2WLP6qvL9-17" value="" style="rounded=1;whiteSpace=wrap;html=1;" vertex="1" parent="7kE2tY7jgJx2WLP6qvL9-16">
          <mxGeometry width="170" height="90" as="geometry" />
        </mxCell>
        <mxCell id="7kE2tY7jgJx2WLP6qvL9-18" value="Digital Signature Provider Connector" style="text;html=1;align=center;verticalAlign=middle;whiteSpace=wrap;rounded=0;" vertex="1" parent="7kE2tY7jgJx2WLP6qvL9-16">
          <mxGeometry x="42.5" y="22.5" width="85" height="45" as="geometry" />
        </mxCell>
      </root>
    </mxGraphModel>
  </diagram>
</mxfile>
